<?xml version="1.0" encoding="utf-8"?>
<!-- Svg Vector Icons : http://www.onlinewebfonts.com/icon -->
<!DOCTYPE svg PUBLIC "-//W3C//DTD SVG 1.1//EN" "http://www.w3.org/Graphics/SVG/1.1/DTD/svg11.dtd">
<svg version="1.1" xmlns="http://www.w3.org/2000/svg" xmlns:xlink="http://www.w3.org/1999/xlink" x="0px" y="0px" viewBox="0 0 256 256" enable-background="new 0 0 256 256" xml:space="preserve">
<metadata> Svg Vector Icons : http://www.onlinewebfonts.com/icon </metadata>
<g> <path fill="#000000" d="M128,24.8c13.9,0,27.5,2.7,40.2,8.1c12.3,5.2,23.3,12.7,32.8,22.1c9.5,9.5,16.9,20.5,22.1,32.8 c5.4,12.7,8.1,26.3,8.1,40.2s-2.7,27.5-8.1,40.2c-5.2,12.3-12.7,23.3-22.1,32.8c-9.5,9.5-20.5,16.9-32.8,22.1 c-12.7,5.4-26.3,8.1-40.2,8.1s-27.5-2.7-40.2-8.1C75.5,217.9,64.5,210.5,55,201c-9.5-9.5-16.9-20.5-22.1-32.8 c-5.4-12.7-8.1-26.3-8.1-40.2s2.7-27.5,8.1-40.2C38.1,75.5,45.5,64.5,55,55c9.5-9.5,20.5-16.9,32.8-22.1 C100.5,27.5,114.1,24.8,128,24.8 M128,10C62.8,10,10,62.8,10,128s52.8,118,118,118s118-52.8,118-118S193.2,10,128,10z"/></g>
</svg>